<svg width="450" height="150" viewBox="0 0 450 150" fill="none" xmlns="http://www.w3.org/2000/svg">
<rect width="450" height="150" rx="12" fill="#0F2372"/>
<rect width="450" height="150" rx="12" fill="url(#paint0_radial_5_2)" fill-opacity="0.2"/>
<rect width="450" height="150" rx="12" fill="url(#paint1_linear_5_2)" fill-opacity="0.3"/>
<rect width="450" height="150" rx="12" fill="url(#paint2_linear_5_2)" fill-opacity="0.3"/>
<g clip-path="url(#clip0_5_2)">
<path d="M102.908 133.695H65.17C59.5097 133.695 54.9047 129.075 54.9047 123.396V23.2996C54.9047 17.6204 59.5097 13 65.17 13H102.908C108.568 13 113.173 17.6204 113.173 23.2996C113.876 63.495 115.074 108.508 113.173 123.396C113.173 129.075 108.568 133.695 102.908 133.695Z" fill="#3F3D56"/>
<path d="M113.7 49.8186C113.46 49.8186 113.265 50.014 113.265 50.2543V64.1974C113.265 64.4378 113.46 64.6332 113.7 64.6332C113.939 64.6332 114.134 64.4378 114.134 64.1974V50.2543C114.134 50.014 113.939 49.8186 113.7 49.8186Z" fill="#3F3D56"/>
<path d="M112.196 23.2997V123.394C112.196 128.337 108.362 132.381 103.513 132.694H103.511C103.439 132.699 103.368 132.703 103.294 132.705C103.166 132.712 103.038 132.714 102.907 132.714C102.907 132.714 102.43 132.679 101.557 132.614C100.675 132.548 99.392 132.45 97.7917 132.322C97.3118 132.285 96.8059 132.243 96.2717 132.2C95.2077 132.113 94.0396 132.017 92.7867 131.908C92.2873 131.866 91.7705 131.821 91.2428 131.775C88.546 131.542 85.5257 131.27 82.3403 130.96C81.8018 130.91 81.259 130.858 80.7118 130.803C80.5685 130.788 55.882 124.562 55.882 123.394V23.2997C55.882 18.1516 60.0401 13.9796 65.171 13.9796H70.7167C71.6026 13.9796 72.3148 14.6724 72.3908 15.5591C72.3973 15.6179 72.4038 15.6767 72.4147 15.7355C72.5753 16.6266 73.3896 17.2475 74.2929 17.2475H93.7855C94.6888 17.2475 95.5031 16.6266 95.6637 15.7355C95.6746 15.6767 95.6811 15.6179 95.6876 15.5591C95.7636 14.6724 96.4758 13.9796 97.3617 13.9796H102.907C108.038 13.9796 112.196 18.1516 112.196 23.2997Z" fill="white"/>
<path d="M54.6876 39.3612C54.4481 39.3612 54.2534 39.5567 54.2534 39.797V43.2828C54.2534 43.5231 54.4481 43.7185 54.6876 43.7185C54.9271 43.7185 55.1219 43.5231 55.1219 43.2828V39.797C55.1219 39.5567 54.9271 39.3612 54.6876 39.3612Z" fill="#3F3D56"/>
<path d="M54.6876 49.8186C54.4481 49.8186 54.2534 50.014 54.2534 50.2543V57.008C54.2534 57.2483 54.4481 57.4437 54.6876 57.4437C54.9271 57.4437 55.1219 57.2483 55.1219 57.008V50.2543C55.1219 50.014 54.9271 49.8186 54.6876 49.8186Z" fill="#3F3D56"/>
<path d="M54.6876 59.4045C54.4481 59.4045 54.2534 59.5999 54.2534 59.8402V66.5939C54.2534 66.8342 54.4481 67.0296 54.6876 67.0296C54.9271 67.0296 55.1219 66.8342 55.1219 66.5939V59.8402C55.1219 59.5999 54.9271 59.4045 54.6876 59.4045Z" fill="#3F3D56"/>
<path d="M70.5741 15.5054H62.2519C62.2115 15.5054 62.1788 15.5382 62.1788 15.5787V16.5215C62.1788 16.5619 62.2115 16.5947 62.2519 16.5947H70.5741C70.6144 16.5947 70.6471 16.5619 70.6471 16.5215V15.5787C70.6471 15.5382 70.6144 15.5054 70.5741 15.5054Z" fill="#E6E6E6"/>
<path d="M98.734 16.5947C99.2136 16.5947 99.6025 16.2046 99.6025 15.7233C99.6025 15.242 99.2136 14.8519 98.734 14.8519C98.2543 14.8519 97.8654 15.242 97.8654 15.7233C97.8654 16.2046 98.2543 16.5947 98.734 16.5947Z" fill="#E6E6E6"/>
<path d="M101.122 16.5947C101.602 16.5947 101.991 16.2046 101.991 15.7233C101.991 15.242 101.602 14.8519 101.122 14.8519C100.643 14.8519 100.254 15.242 100.254 15.7233C100.254 16.2046 100.643 16.5947 101.122 16.5947Z" fill="#E6E6E6"/>
<path d="M103.511 16.5947C103.991 16.5947 104.379 16.2046 104.379 15.7233C104.379 15.242 103.991 14.8519 103.511 14.8519C103.031 14.8519 102.642 15.242 102.642 15.7233C102.642 16.2046 103.031 16.5947 103.511 16.5947Z" fill="#E6E6E6"/>
<path d="M55.5229 131.873L52.8761 131.873L51.6169 121.629L55.5234 121.629L55.5229 131.873Z" fill="#FFB6B6"/>
<path d="M46.4545 131.813C46.3721 131.952 46.3286 132.401 46.3286 132.563C46.3286 133.061 46.7308 133.465 47.227 133.465H55.4239C55.7623 133.465 56.0367 133.189 56.0367 132.85V132.507C56.0367 132.507 56.4422 131.478 55.6074 130.21C55.6074 130.21 54.5698 131.203 53.0194 129.647L52.5622 128.816L49.2526 131.245L47.4181 131.471C47.0168 131.521 46.661 131.464 46.4545 131.813Z" fill="#2F2E41"/>
<path d="M40.8855 117.645L38.2387 117.636L37.012 107.389L40.9184 107.402L40.8855 117.645Z" fill="#FFB6B6"/>
<path d="M31.8174 117.556C31.7345 117.695 31.6896 118.144 31.6891 118.306C31.6875 118.804 32.0884 119.209 32.5846 119.211L40.7815 119.237C41.1199 119.238 41.3952 118.963 41.3963 118.624L41.3973 118.281C41.3973 118.281 41.8061 117.253 40.9753 115.982C40.9753 115.982 39.9345 116.972 38.389 115.412L37.9345 114.579L34.6172 116.997L32.7821 117.218C32.3806 117.266 32.0249 117.208 31.8174 117.556Z" fill="#2F2E41"/>
<path d="M51.6625 69.686L48.3668 69.9222C48.3668 69.9222 37.2097 76.2869 36.2681 77.7041C35.3265 79.1212 34.0317 81.1288 35.2088 83.2546C36.3858 85.3803 35.49 111.119 35.49 111.119L41.1144 109.842L44.7181 82.9127L52.251 81.8498C52.251 81.8498 54.8405 87.4552 53.8989 92.0925C52.9572 96.7299 52.4864 99.5642 52.4864 99.5642L51.3094 126.962L55.8998 126.844L60.0194 101.454L67.0815 81.3774L57.9007 70.5126L51.6625 69.686Z" fill="#2F2E41"/>
<path d="M67.9054 40.6344L61.0787 41.343L60.3725 43.7049L53.7812 47.2478L55.8998 62.1278L54.252 64.7259L54.9582 67.324C54.9582 67.324 53.0749 67.5602 53.3103 68.9774L49.0731 69.686C49.0731 69.686 54.6931 70.8372 55.885 76.5206C57.0768 82.2041 66.9638 82.9127 66.9638 82.9127L74.7322 58.585L75.4384 44.1773L70.0241 42.7601L67.9054 40.6344Z" fill="#E6E6E6"/>
<path d="M64.3076 39.7381C67.2386 39.7381 69.6146 37.3542 69.6146 34.4135C69.6146 31.4727 67.2386 29.0888 64.3076 29.0888C61.3767 29.0888 59.0007 31.4727 59.0007 34.4135C59.0007 37.3542 61.3767 39.7381 64.3076 39.7381Z" fill="#FFB6B6"/>
<path d="M61.5495 39.2173C61.5495 39.2173 56.8414 38.9811 57.3122 35.202C56.1469 31.1777 57.1784 28.5648 60.8433 27.6439C60.8433 27.6439 61.7849 27.4077 62.0203 27.4077C65.1166 27.4077 66.7284 28.3524 66.7284 28.3524C66.7284 28.3524 66.493 27.417 66.7284 27.6485C66.9638 27.8801 67.1992 28.3524 67.1992 28.3524C67.1992 28.3524 69.5533 29.5334 69.5533 31.8953C69.5533 34.2572 69.5533 33.3125 69.5533 33.3125C69.5533 33.3125 69.0825 33.3125 68.6116 31.8953C68.1408 30.4782 65.0926 31.4229 65.0926 31.4229L65.316 31.8953L64.6098 31.6591L63.9036 32.3677L63.4327 32.1315C63.4327 32.1315 61.5495 32.1315 61.7849 32.1315C62.0203 32.1315 61.8563 33.7366 61.8563 33.7366L60.1371 35.6744L62.0203 39.2173H61.5495Z" fill="#2F2E41"/>
<path d="M36.4661 67.4077C35.1259 68.1416 34.4167 69.4302 34.8822 70.2859C35.3477 71.1417 36.8115 71.2404 38.1518 70.5065C38.7384 70.1853 39.2041 69.7577 39.5034 69.3067L45.1435 66.1254L43.5992 63.5016L38.2031 66.9162C37.6631 66.9247 37.0528 67.0864 36.4661 67.4077Z" fill="#FFB6B6"/>
<path d="M55.4864 47.358C55.4864 47.358 53.2754 46.5134 52.5137 47.5301C51.7519 48.5467 46.7197 60.8831 46.7197 60.8831L39.3365 64.752L41.4127 68.3796L50.9201 65.2037L57.1928 53.6933L55.4864 47.358Z" fill="#E6E6E6"/>
<path d="M125.206 87.8722V112.909C125.206 115.123 123.411 116.924 121.205 116.924H59.5286C57.3219 116.924 55.5267 115.123 55.5267 112.909V87.8722C55.5267 85.6581 57.3219 83.8569 59.5286 83.8569H121.205C123.411 83.8569 125.206 85.6581 125.206 87.8722Z" fill="white"/>
<path d="M125.206 87.8722V112.909C125.206 115.123 123.411 116.924 121.205 116.924H59.5286C57.3219 116.924 55.5267 115.123 55.5267 112.909V87.8722C55.5267 85.6581 57.3219 83.8569 59.5286 83.8569H121.205C123.411 83.8569 125.206 85.6581 125.206 87.8722ZM121.205 116.451C123.155 116.451 124.736 114.865 124.736 112.909V100.286C124.736 91.4735 117.615 84.3293 108.832 84.3293H59.5286C57.5784 84.3293 55.9975 85.9155 55.9975 87.8722V112.909C55.9975 114.865 57.5784 116.451 59.5286 116.451H121.205Z" fill="#3F3D56"/>
<path d="M83.2127 98.983H75.157C74.9539 98.983 74.7887 99.1487 74.7887 99.3525C74.7887 99.5563 74.9539 99.7221 75.157 99.7221H83.2127C83.4158 99.7221 83.581 99.5563 83.581 99.3525C83.581 99.1487 83.4158 98.983 83.2127 98.983Z" fill="#45D899"/>
<path d="M95.4538 98.983H87.3981C87.195 98.983 87.0297 99.1487 87.0297 99.3525C87.0297 99.5563 87.195 99.7221 87.3981 99.7221H95.4538C95.6569 99.7221 95.822 99.5563 95.822 99.3525C95.822 99.1487 95.6569 98.983 95.4538 98.983Z" fill="#45D899"/>
<path d="M83.2127 103.023H75.157C74.9539 103.023 74.7887 103.189 74.7887 103.393C74.7887 103.597 74.9539 103.762 75.157 103.762H83.2127C83.4158 103.762 83.581 103.597 83.581 103.393C83.581 103.189 83.4158 103.023 83.2127 103.023Z" fill="#45D899"/>
<path d="M95.4538 103.023H87.3981C87.195 103.023 87.0297 103.189 87.0297 103.393C87.0297 103.597 87.195 103.762 87.3981 103.762H95.4538C95.6569 103.762 95.822 103.597 95.822 103.393C95.822 103.189 95.6569 103.023 95.4538 103.023Z" fill="#45D899"/>
<path d="M108.063 103.393C108.063 103.189 107.898 103.023 107.695 103.023H99.6392C99.4361 103.023 99.2708 103.189 99.2708 103.393C99.2708 103.597 99.4361 103.762 99.6392 103.762H107.695C107.898 103.762 108.063 103.597 108.063 103.393Z" fill="#45D899"/>
<path d="M78.5047 95.7569C78.7078 95.7569 78.8729 95.5911 78.8729 95.3873C78.8729 95.1836 78.7078 95.0179 78.5047 95.0179H70.449C70.2459 95.0179 70.0806 95.1836 70.0806 95.3873C70.0806 95.5911 70.2459 95.7569 70.449 95.7569H78.5047Z" fill="#45D899"/>
<path d="M102.229 95.6066H110.284C110.487 95.6066 110.653 95.4408 110.653 95.237C110.653 95.0333 110.487 94.8675 110.284 94.8675H102.229C102.026 94.8675 101.86 95.0333 101.86 95.237C101.86 95.4408 102.026 95.6066 102.229 95.6066Z" fill="#45D899"/>
<path d="M81.8983 95.6844H98.5995C98.8026 95.6844 98.9678 95.5186 98.9678 95.3148C98.9678 95.111 98.8026 94.9453 98.5995 94.9453H81.8983C81.6952 94.9453 81.53 95.111 81.53 95.3148C81.53 95.5186 81.6952 95.6844 81.8983 95.6844Z" fill="#45D899"/>
<path d="M88.4694 106.694H80.4137C80.2107 106.694 80.0454 106.86 80.0454 107.064C80.0454 107.267 80.2107 107.433 80.4137 107.433H88.4694C88.6725 107.433 88.8377 107.267 88.8377 107.064C88.8377 106.86 88.6725 106.694 88.4694 106.694Z" fill="#45D899"/>
<path d="M114.487 87.6834V112.72C114.487 114.934 112.691 116.735 110.485 116.735H85.5318C83.3252 116.735 81.53 114.934 81.53 112.72V87.6834C81.53 85.4694 83.3252 83.6682 85.5318 83.6682H110.485C112.691 83.6682 114.487 85.4694 114.487 87.6834Z" fill="white"/>
<path d="M114.487 87.6834V112.72C114.487 114.934 112.691 116.735 110.485 116.735H85.5318C83.3252 116.735 81.53 114.934 81.53 112.72V87.6834C81.53 85.4694 83.3252 83.6682 85.5318 83.6682H110.485C112.691 83.6682 114.487 85.4694 114.487 87.6834ZM108.937 116.263C111.742 116.263 114.016 113.981 114.016 111.167V100.097C114.016 91.2847 106.895 84.1406 98.1121 84.1406H85.5319C83.5817 84.1406 82.0008 85.7268 82.0008 87.6834V109.227C82.0008 113.112 85.1404 116.263 89.0133 116.263L108.937 116.263Z" fill="#3F3D56"/>
<path d="M101.33 93.8934H93.2743C93.0712 93.8934 92.9059 93.7276 92.9059 93.5239C92.9059 93.3201 93.0712 93.1544 93.2743 93.1544H101.33C101.533 93.1544 101.698 93.3201 101.698 93.5239C101.698 93.7276 101.533 93.8934 101.33 93.8934Z" fill="#45D899"/>
<path d="M101.33 101.774H93.2743C93.0712 101.774 92.9059 101.608 92.9059 101.404C92.9059 101.2 93.0712 101.035 93.2743 101.035H101.33C101.533 101.035 101.698 101.2 101.698 101.404C101.698 101.608 101.533 101.774 101.33 101.774Z" fill="#45D899"/>
<path d="M97.3281 112.638H89.2724C89.0693 112.638 88.9041 112.473 88.9041 112.269C88.9041 112.065 89.0693 111.899 89.2724 111.899H97.3281C97.5312 111.899 97.6963 112.065 97.6963 112.269C97.6963 112.473 97.5312 112.638 97.3281 112.638Z" fill="#45D899"/>
<path d="M105.653 97.8361H88.9515C88.7484 97.8361 88.5832 97.6703 88.5832 97.4665C88.5832 97.2628 88.7484 97.0971 88.9515 97.0971H105.653C105.856 97.0971 106.021 97.2628 106.021 97.4665C106.021 97.6703 105.856 97.8361 105.653 97.8361Z" fill="#45D899"/>
<path d="M109.792 73.8102C109.792 66 103.212 61.7036 95.6971 59.6686C86.0617 57.0597 79.005 62.3391 81.6026 73.8102C82.1913 76.4101 83.5994 79.4465 85.3423 82.0439H99.1733C103.793 79.026 109.792 79.8724 109.792 73.8102Z" fill="#45D899"/>
<path d="M95.4902 88.5746C96.277 87.0697 97.2744 85.984 98.3735 85.1576H85.4191C88.7532 89.9361 93.1749 93.003 95.4902 88.5746Z" fill="#45D899"/>
<path d="M93.9953 65.4492C94.827 65.4492 95.5011 66.1256 95.5011 66.9601V69.9818H92.4895V66.9601C92.4895 66.1256 93.1637 65.4492 93.9953 65.4492ZM96.2541 69.9818V66.96C96.2541 65.7084 95.2428 64.6937 93.9953 64.6937C92.7478 64.6937 91.7366 65.7084 91.7366 66.96V69.9818C90.9049 69.9818 90.2307 70.6582 90.2307 71.4927V75.2698C90.2307 76.1043 90.9049 76.7807 91.7366 76.7807H96.2541C97.0857 76.7807 97.7599 76.1043 97.7599 75.2698V71.4927C97.7599 70.6582 97.0857 69.9818 96.2541 69.9818ZM91.7366 70.7372H96.2541C96.6699 70.7372 97.007 71.0754 97.007 71.4927V75.2698C97.007 75.687 96.6699 76.0252 96.2541 76.0252H91.7366C91.3207 76.0252 90.9836 75.687 90.9836 75.2698V71.4927C90.9836 71.0754 91.3207 70.7372 91.7366 70.7372Z" fill="white"/>
<path d="M72.4761 83.041C72.2945 84.5621 72.9294 85.8891 73.8941 86.0051C74.8589 86.121 75.7881 84.9819 75.9697 83.4608C76.0492 82.795 75.9722 82.1663 75.7796 81.6602L76.4683 75.2052L73.4424 74.9454L73.0846 81.3363C72.7783 81.7826 72.5555 82.3752 72.4761 83.041Z" fill="#FFB6B6"/>
<path d="M73.202 44.5316C73.202 44.5316 76.4977 43.5868 77.2039 45.0039C77.9101 46.4211 79.558 65.0802 79.558 65.0802L76.38 79.9742L72.7312 79.0155L74.6145 63.8993L72.025 52.5621L73.202 44.5316Z" fill="#E6E6E6"/>
<path d="M24.7712 89.8424C32.3768 89.8424 38.5423 83.6563 38.5423 76.0253C38.5423 68.3942 32.3768 62.208 24.7712 62.208C17.1656 62.208 11 68.3942 11 76.0253C11 83.6563 17.1656 89.8424 24.7712 89.8424Z" fill="#45D899"/>
<path d="M24.7712 69.8396C25.744 69.8396 26.5326 70.6309 26.5326 71.607V75.1416H23.0098V71.607C23.0098 70.6309 23.7984 69.8396 24.7712 69.8396ZM27.4133 75.1416V71.607C27.4133 70.1429 26.2304 68.956 24.7712 68.956C23.312 68.956 22.129 70.1429 22.129 71.607V75.1416C21.1562 75.1416 20.3676 75.9328 20.3676 76.9089V81.3272C20.3676 82.3033 21.1562 83.0945 22.129 83.0945H27.4133C28.3861 83.0945 29.1748 82.3033 29.1748 81.3272V76.9089C29.1748 75.9328 28.3861 75.1416 27.4133 75.1416ZM22.129 76.0252H27.4133C27.8997 76.0252 28.2941 76.4209 28.2941 76.9089V81.3272C28.2941 81.8152 27.8997 82.2108 27.4133 82.2108H22.129C21.6426 82.2108 21.2483 81.8152 21.2483 81.3272V76.9089C21.2483 76.4209 21.6426 76.0252 22.129 76.0252Z" fill="white"/>
</g>
<path d="M150.268 67.9248H154.647C154.56 69.3604 154.164 70.6348 153.461 71.748C152.768 72.8613 151.796 73.7305 150.546 74.3555C149.306 74.9805 147.812 75.293 146.063 75.293C144.696 75.293 143.471 75.0586 142.387 74.5898C141.303 74.1113 140.375 73.4277 139.604 72.5391C138.842 71.6504 138.261 70.5762 137.86 69.3164C137.46 68.0566 137.26 66.6455 137.26 65.083V63.6035C137.26 62.041 137.465 60.6299 137.875 59.3701C138.295 58.1006 138.891 57.0215 139.662 56.1328C140.443 55.2441 141.376 54.5605 142.46 54.082C143.544 53.6035 144.755 53.3643 146.093 53.3643C147.87 53.3643 149.369 53.6865 150.59 54.3311C151.82 54.9756 152.772 55.8643 153.446 56.9971C154.13 58.1299 154.54 59.4189 154.677 60.8643H150.282C150.233 60.0049 150.062 59.2773 149.77 58.6816C149.477 58.0762 149.032 57.6221 148.437 57.3193C147.851 57.0068 147.069 56.8506 146.093 56.8506C145.36 56.8506 144.721 56.9873 144.174 57.2607C143.627 57.5342 143.168 57.9492 142.797 58.5059C142.426 59.0625 142.147 59.7656 141.962 60.6152C141.786 61.4551 141.698 62.4414 141.698 63.5742V65.083C141.698 66.1865 141.781 67.1582 141.947 67.998C142.113 68.8281 142.367 69.5312 142.709 70.1074C143.061 70.6738 143.51 71.1035 144.057 71.3965C144.613 71.6797 145.282 71.8213 146.063 71.8213C146.981 71.8213 147.738 71.6748 148.334 71.3818C148.93 71.0889 149.384 70.6543 149.696 70.0781C150.019 69.502 150.209 68.7842 150.268 67.9248ZM166.645 71.2061V59.1504H170.863V75H166.894L166.645 71.2061ZM167.113 67.9541L168.358 67.9248C168.358 68.9795 168.236 69.9609 167.992 70.8691C167.748 71.7676 167.382 72.5488 166.894 73.2129C166.405 73.8672 165.79 74.3799 165.048 74.751C164.306 75.1123 163.432 75.293 162.426 75.293C161.654 75.293 160.941 75.1855 160.287 74.9707C159.643 74.7461 159.086 74.3994 158.617 73.9307C158.158 73.4521 157.797 72.8418 157.533 72.0996C157.279 71.3477 157.152 70.4443 157.152 69.3896V59.1504H161.371V69.4189C161.371 69.8877 161.425 70.2832 161.532 70.6055C161.649 70.9277 161.811 71.1914 162.016 71.3965C162.221 71.6016 162.46 71.748 162.733 71.8359C163.017 71.9238 163.329 71.9678 163.671 71.9678C164.54 71.9678 165.224 71.792 165.722 71.4404C166.229 71.0889 166.586 70.6104 166.791 70.0049C167.006 69.3896 167.113 68.7061 167.113 67.9541ZM178.539 59.1504V75H174.306V59.1504H178.539ZM174.042 55.0195C174.042 54.4043 174.257 53.8965 174.687 53.4961C175.116 53.0957 175.692 52.8955 176.415 52.8955C177.128 52.8955 177.699 53.0957 178.129 53.4961C178.568 53.8965 178.788 54.4043 178.788 55.0195C178.788 55.6348 178.568 56.1426 178.129 56.543C177.699 56.9434 177.128 57.1436 176.415 57.1436C175.692 57.1436 175.116 56.9434 174.687 56.543C174.257 56.1426 174.042 55.6348 174.042 55.0195ZM191.386 71.543V52.5H195.634V75H191.811L191.386 71.543ZM181.366 67.2656V66.958C181.366 65.7471 181.503 64.6484 181.776 63.6621C182.05 62.666 182.45 61.8115 182.978 61.0986C183.505 60.3857 184.154 59.834 184.926 59.4434C185.697 59.0527 186.576 58.8574 187.562 58.8574C188.49 58.8574 189.301 59.0527 189.994 59.4434C190.697 59.834 191.293 60.3906 191.781 61.1133C192.279 61.8262 192.68 62.6709 192.982 63.6475C193.285 64.6143 193.505 65.6738 193.642 66.8262V67.5C193.505 68.6035 193.285 69.6289 192.982 70.5762C192.68 71.5234 192.279 72.3535 191.781 73.0664C191.293 73.7695 190.697 74.3164 189.994 74.707C189.291 75.0977 188.471 75.293 187.533 75.293C186.547 75.293 185.668 75.0928 184.896 74.6924C184.135 74.292 183.49 73.7305 182.963 73.0078C182.445 72.2852 182.05 71.4355 181.776 70.459C181.503 69.4824 181.366 68.418 181.366 67.2656ZM185.585 66.958V67.2656C185.585 67.9199 185.634 68.5303 185.731 69.0967C185.839 69.6631 186.01 70.166 186.244 70.6055C186.488 71.0352 186.801 71.3721 187.182 71.6162C187.572 71.8506 188.046 71.9678 188.603 71.9678C189.325 71.9678 189.921 71.8066 190.39 71.4844C190.858 71.1523 191.215 70.6982 191.459 70.1221C191.713 69.5459 191.859 68.8818 191.898 68.1299V66.2109C191.869 65.5957 191.781 65.0439 191.635 64.5557C191.498 64.0576 191.293 63.6328 191.02 63.2812C190.756 62.9297 190.424 62.6562 190.023 62.4609C189.633 62.2656 189.169 62.168 188.632 62.168C188.085 62.168 187.616 62.2949 187.226 62.5488C186.835 62.793 186.518 63.1299 186.273 63.5596C186.039 63.9893 185.863 64.4971 185.746 65.083C185.639 65.6592 185.585 66.2842 185.585 66.958ZM206.225 75.293C204.994 75.293 203.891 75.0977 202.914 74.707C201.938 74.3066 201.107 73.7549 200.424 73.0518C199.75 72.3486 199.232 71.5332 198.871 70.6055C198.51 69.668 198.329 68.6719 198.329 67.6172V67.0312C198.329 65.8301 198.5 64.7314 198.842 63.7354C199.184 62.7393 199.672 61.875 200.307 61.1426C200.951 60.4102 201.732 59.8486 202.65 59.458C203.568 59.0576 204.604 58.8574 205.756 58.8574C206.879 58.8574 207.875 59.043 208.744 59.4141C209.613 59.7852 210.341 60.3125 210.927 60.9961C211.522 61.6797 211.972 62.5 212.274 63.457C212.577 64.4043 212.729 65.459 212.729 66.6211V68.3789H200.131V65.5664H208.583V65.2441C208.583 64.6582 208.476 64.1357 208.261 63.6768C208.056 63.208 207.743 62.8369 207.323 62.5635C206.903 62.29 206.366 62.1533 205.712 62.1533C205.155 62.1533 204.677 62.2754 204.276 62.5195C203.876 62.7637 203.549 63.1055 203.295 63.5449C203.051 63.9844 202.865 64.502 202.738 65.0977C202.621 65.6836 202.562 66.3281 202.562 67.0312V67.6172C202.562 68.252 202.65 68.8379 202.826 69.375C203.012 69.9121 203.271 70.376 203.603 70.7666C203.944 71.1572 204.354 71.46 204.833 71.6748C205.321 71.8896 205.873 71.9971 206.488 71.9971C207.25 71.9971 207.958 71.8506 208.612 71.5576C209.276 71.2549 209.848 70.8008 210.326 70.1953L212.377 72.4219C212.045 72.9004 211.591 73.3594 211.015 73.7988C210.448 74.2383 209.765 74.5996 208.964 74.8828C208.163 75.1562 207.25 75.293 206.225 75.293ZM231.962 71.543V52.5H236.21V75H232.387L231.962 71.543ZM221.942 67.2656V66.958C221.942 65.7471 222.079 64.6484 222.353 63.6621C222.626 62.666 223.026 61.8115 223.554 61.0986C224.081 60.3857 224.73 59.834 225.502 59.4434C226.273 59.0527 227.152 58.8574 228.139 58.8574C229.066 58.8574 229.877 59.0527 230.57 59.4434C231.273 59.834 231.869 60.3906 232.357 61.1133C232.855 61.8262 233.256 62.6709 233.559 63.6475C233.861 64.6143 234.081 65.6738 234.218 66.8262V67.5C234.081 68.6035 233.861 69.6289 233.559 70.5762C233.256 71.5234 232.855 72.3535 232.357 73.0664C231.869 73.7695 231.273 74.3164 230.57 74.707C229.867 75.0977 229.047 75.293 228.109 75.293C227.123 75.293 226.244 75.0928 225.473 74.6924C224.711 74.292 224.066 73.7305 223.539 73.0078C223.021 72.2852 222.626 71.4355 222.353 70.459C222.079 69.4824 221.942 68.418 221.942 67.2656ZM226.161 66.958V67.2656C226.161 67.9199 226.21 68.5303 226.308 69.0967C226.415 69.6631 226.586 70.166 226.82 70.6055C227.064 71.0352 227.377 71.3721 227.758 71.6162C228.148 71.8506 228.622 71.9678 229.179 71.9678C229.901 71.9678 230.497 71.8066 230.966 71.4844C231.435 71.1523 231.791 70.6982 232.035 70.1221C232.289 69.5459 232.436 68.8818 232.475 68.1299V66.2109C232.445 65.5957 232.357 65.0439 232.211 64.5557C232.074 64.0576 231.869 63.6328 231.596 63.2812C231.332 62.9297 231 62.6562 230.6 62.4609C230.209 62.2656 229.745 62.168 229.208 62.168C228.661 62.168 228.192 62.2949 227.802 62.5488C227.411 62.793 227.094 63.1299 226.85 63.5596C226.615 63.9893 226.439 64.4971 226.322 65.083C226.215 65.6592 226.161 66.2842 226.161 66.958ZM238.832 67.2363V66.9287C238.832 65.7666 238.998 64.6973 239.33 63.7207C239.662 62.7344 240.146 61.8799 240.78 61.1572C241.415 60.4346 242.196 59.873 243.124 59.4727C244.052 59.0625 245.116 58.8574 246.317 58.8574C247.519 58.8574 248.588 59.0625 249.525 59.4727C250.463 59.873 251.249 60.4346 251.884 61.1572C252.528 61.8799 253.017 62.7344 253.349 63.7207C253.681 64.6973 253.847 65.7666 253.847 66.9287V67.2363C253.847 68.3887 253.681 69.458 253.349 70.4443C253.017 71.4209 252.528 72.2754 251.884 73.0078C251.249 73.7305 250.468 74.292 249.54 74.6924C248.612 75.0928 247.548 75.293 246.347 75.293C245.146 75.293 244.076 75.0928 243.139 74.6924C242.211 74.292 241.425 73.7305 240.78 73.0078C240.146 72.2754 239.662 71.4209 239.33 70.4443C238.998 69.458 238.832 68.3887 238.832 67.2363ZM243.051 66.9287V67.2363C243.051 67.9004 243.109 68.5205 243.227 69.0967C243.344 69.6729 243.529 70.1807 243.783 70.6201C244.047 71.0498 244.389 71.3867 244.809 71.6309C245.229 71.875 245.741 71.9971 246.347 71.9971C246.933 71.9971 247.436 71.875 247.855 71.6309C248.275 71.3867 248.612 71.0498 248.866 70.6201C249.12 70.1807 249.306 69.6729 249.423 69.0967C249.55 68.5205 249.613 67.9004 249.613 67.2363V66.9287C249.613 66.2842 249.55 65.6787 249.423 65.1123C249.306 64.5361 249.115 64.0283 248.852 63.5889C248.598 63.1396 248.261 62.7881 247.841 62.5342C247.421 62.2803 246.913 62.1533 246.317 62.1533C245.722 62.1533 245.214 62.2803 244.794 62.5342C244.384 62.7881 244.047 63.1396 243.783 63.5889C243.529 64.0283 243.344 64.5361 243.227 65.1123C243.109 65.6787 243.051 66.2842 243.051 66.9287ZM272.479 70.6201C272.479 70.3174 272.392 70.0439 272.216 69.7998C272.04 69.5557 271.713 69.3311 271.234 69.126C270.766 68.9111 270.087 68.7158 269.198 68.54C268.397 68.3643 267.65 68.1445 266.957 67.8809C266.273 67.6074 265.678 67.2803 265.17 66.8994C264.672 66.5186 264.281 66.0693 263.998 65.5518C263.715 65.0244 263.573 64.4238 263.573 63.75C263.573 63.0859 263.715 62.4609 263.998 61.875C264.291 61.2891 264.706 60.7715 265.243 60.3223C265.79 59.8633 266.454 59.5068 267.235 59.2529C268.026 58.9893 268.915 58.8574 269.901 58.8574C271.278 58.8574 272.46 59.0771 273.446 59.5166C274.442 59.9561 275.204 60.5615 275.731 61.333C276.269 62.0947 276.537 62.9639 276.537 63.9404H272.318C272.318 63.5303 272.23 63.1641 272.055 62.8418C271.889 62.5098 271.625 62.251 271.264 62.0654C270.912 61.8701 270.453 61.7725 269.887 61.7725C269.418 61.7725 269.013 61.8555 268.671 62.0215C268.329 62.1777 268.065 62.3926 267.88 62.666C267.704 62.9297 267.616 63.2227 267.616 63.5449C267.616 63.7891 267.665 64.0088 267.763 64.2041C267.87 64.3896 268.041 64.5605 268.275 64.7168C268.51 64.873 268.812 65.0195 269.184 65.1562C269.564 65.2832 270.033 65.4004 270.59 65.5078C271.732 65.7422 272.753 66.0498 273.651 66.4307C274.55 66.8018 275.263 67.3096 275.79 67.9541C276.317 68.5889 276.581 69.4238 276.581 70.459C276.581 71.1621 276.425 71.8066 276.112 72.3926C275.8 72.9785 275.351 73.4912 274.765 73.9307C274.179 74.3604 273.476 74.6973 272.655 74.9414C271.845 75.1758 270.932 75.293 269.916 75.293C268.441 75.293 267.191 75.0293 266.166 74.502C265.15 73.9746 264.379 73.3057 263.852 72.4951C263.334 71.6748 263.075 70.835 263.075 69.9756H267.074C267.094 70.5518 267.24 71.0156 267.514 71.3672C267.797 71.7188 268.153 71.9727 268.583 72.1289C269.022 72.2852 269.496 72.3633 270.004 72.3633C270.551 72.3633 271.005 72.29 271.366 72.1436C271.728 71.9873 272.001 71.7822 272.187 71.5283C272.382 71.2646 272.479 70.9619 272.479 70.6201ZM286.615 75.293C285.385 75.293 284.281 75.0977 283.305 74.707C282.328 74.3066 281.498 73.7549 280.814 73.0518C280.141 72.3486 279.623 71.5332 279.262 70.6055C278.9 69.668 278.72 68.6719 278.72 67.6172V67.0312C278.72 65.8301 278.891 64.7314 279.232 63.7354C279.574 62.7393 280.062 61.875 280.697 61.1426C281.342 60.4102 282.123 59.8486 283.041 59.458C283.959 59.0576 284.994 58.8574 286.146 58.8574C287.27 58.8574 288.266 59.043 289.135 59.4141C290.004 59.7852 290.731 60.3125 291.317 60.9961C291.913 61.6797 292.362 62.5 292.665 63.457C292.968 64.4043 293.119 65.459 293.119 66.6211V68.3789H280.521V65.5664H288.974V65.2441C288.974 64.6582 288.866 64.1357 288.651 63.6768C288.446 63.208 288.134 62.8369 287.714 62.5635C287.294 62.29 286.757 62.1533 286.103 62.1533C285.546 62.1533 285.067 62.2754 284.667 62.5195C284.267 62.7637 283.939 63.1055 283.686 63.5449C283.441 63.9844 283.256 64.502 283.129 65.0977C283.012 65.6836 282.953 66.3281 282.953 67.0312V67.6172C282.953 68.252 283.041 68.8379 283.217 69.375C283.402 69.9121 283.661 70.376 283.993 70.7666C284.335 71.1572 284.745 71.46 285.224 71.6748C285.712 71.8896 286.264 71.9971 286.879 71.9971C287.641 71.9971 288.349 71.8506 289.003 71.5576C289.667 71.2549 290.238 70.8008 290.717 70.1953L292.768 72.4219C292.436 72.9004 291.981 73.3594 291.405 73.7988C290.839 74.2383 290.155 74.5996 289.354 74.8828C288.554 75.1562 287.641 75.293 286.615 75.293ZM304.896 71.2061V59.1504H309.115V75H305.146L304.896 71.2061ZM305.365 67.9541L306.61 67.9248C306.61 68.9795 306.488 69.9609 306.244 70.8691C306 71.7676 305.634 72.5488 305.146 73.2129C304.657 73.8672 304.042 74.3799 303.3 74.751C302.558 75.1123 301.684 75.293 300.678 75.293C299.906 75.293 299.193 75.1855 298.539 74.9707C297.895 74.7461 297.338 74.3994 296.869 73.9307C296.41 73.4521 296.049 72.8418 295.785 72.0996C295.531 71.3477 295.404 70.4443 295.404 69.3896V59.1504H299.623V69.4189C299.623 69.8877 299.677 70.2832 299.784 70.6055C299.901 70.9277 300.062 71.1914 300.268 71.3965C300.473 71.6016 300.712 71.748 300.985 71.8359C301.269 71.9238 301.581 71.9678 301.923 71.9678C302.792 71.9678 303.476 71.792 303.974 71.4404C304.481 71.0889 304.838 70.6104 305.043 70.0049C305.258 69.3896 305.365 68.7061 305.365 67.9541ZM329.169 71.543V52.5H333.417V75H329.594L329.169 71.543ZM319.149 67.2656V66.958C319.149 65.7471 319.286 64.6484 319.56 63.6621C319.833 62.666 320.233 61.8115 320.761 61.0986C321.288 60.3857 321.938 59.834 322.709 59.4434C323.48 59.0527 324.359 58.8574 325.346 58.8574C326.273 58.8574 327.084 59.0527 327.777 59.4434C328.48 59.834 329.076 60.3906 329.564 61.1133C330.062 61.8262 330.463 62.6709 330.766 63.6475C331.068 64.6143 331.288 65.6738 331.425 66.8262V67.5C331.288 68.6035 331.068 69.6289 330.766 70.5762C330.463 71.5234 330.062 72.3535 329.564 73.0664C329.076 73.7695 328.48 74.3164 327.777 74.707C327.074 75.0977 326.254 75.293 325.316 75.293C324.33 75.293 323.451 75.0928 322.68 74.6924C321.918 74.292 321.273 73.7305 320.746 73.0078C320.229 72.2852 319.833 71.4355 319.56 70.459C319.286 69.4824 319.149 68.418 319.149 67.2656ZM323.368 66.958V67.2656C323.368 67.9199 323.417 68.5303 323.515 69.0967C323.622 69.6631 323.793 70.166 324.027 70.6055C324.271 71.0352 324.584 71.3721 324.965 71.6162C325.355 71.8506 325.829 71.9678 326.386 71.9678C327.108 71.9678 327.704 71.8066 328.173 71.4844C328.642 71.1523 328.998 70.6982 329.242 70.1221C329.496 69.5459 329.643 68.8818 329.682 68.1299V66.2109C329.652 65.5957 329.564 65.0439 329.418 64.5557C329.281 64.0576 329.076 63.6328 328.803 63.2812C328.539 62.9297 328.207 62.6562 327.807 62.4609C327.416 62.2656 326.952 62.168 326.415 62.168C325.868 62.168 325.399 62.2949 325.009 62.5488C324.618 62.793 324.301 63.1299 324.057 63.5596C323.822 63.9893 323.646 64.4971 323.529 65.083C323.422 65.6592 323.368 66.2842 323.368 66.958ZM341.166 59.1504V75H336.933V59.1504H341.166ZM336.669 55.0195C336.669 54.4043 336.884 53.8965 337.313 53.4961C337.743 53.0957 338.319 52.8955 339.042 52.8955C339.755 52.8955 340.326 53.0957 340.756 53.4961C341.195 53.8965 341.415 54.4043 341.415 55.0195C341.415 55.6348 341.195 56.1426 340.756 56.543C340.326 56.9434 339.755 57.1436 339.042 57.1436C338.319 57.1436 337.743 56.9434 337.313 56.543C336.884 56.1426 336.669 55.6348 336.669 55.0195ZM348.783 62.5342V75H344.564V59.1504H348.52L348.783 62.5342ZM348.168 66.5186H347.025C347.025 65.3467 347.177 64.292 347.479 63.3545C347.782 62.4072 348.207 61.6016 348.754 60.9375C349.301 60.2637 349.95 59.751 350.702 59.3994C351.464 59.0381 352.313 58.8574 353.251 58.8574C353.993 58.8574 354.672 58.9648 355.287 59.1797C355.902 59.3945 356.43 59.7363 356.869 60.2051C357.318 60.6738 357.66 61.2939 357.895 62.0654C358.139 62.8369 358.261 63.7793 358.261 64.8926V75H354.013V64.8779C354.013 64.1748 353.915 63.6279 353.72 63.2373C353.524 62.8467 353.236 62.5732 352.855 62.417C352.484 62.251 352.025 62.168 351.479 62.168C350.912 62.168 350.419 62.2803 349.999 62.5049C349.589 62.7295 349.247 63.042 348.974 63.4424C348.71 63.833 348.51 64.292 348.373 64.8193C348.236 65.3467 348.168 65.9131 348.168 66.5186ZM365.585 52.5V75H361.366V52.5H365.585ZM364.984 66.5186H363.827C363.837 65.415 363.983 64.3994 364.267 63.4717C364.55 62.5342 364.955 61.7236 365.482 61.04C366.01 60.3467 366.64 59.8096 367.372 59.4287C368.114 59.0479 368.935 58.8574 369.833 58.8574C370.614 58.8574 371.322 58.9697 371.957 59.1943C372.602 59.4092 373.153 59.7607 373.612 60.249C374.081 60.7275 374.442 61.3574 374.696 62.1387C374.95 62.9199 375.077 63.8672 375.077 64.9805V75H370.829V64.9512C370.829 64.248 370.727 63.6963 370.521 63.2959C370.326 62.8857 370.038 62.5977 369.657 62.4316C369.286 62.2559 368.827 62.168 368.28 62.168C367.675 62.168 367.157 62.2803 366.728 62.5049C366.308 62.7295 365.971 63.042 365.717 63.4424C365.463 63.833 365.277 64.292 365.16 64.8193C365.043 65.3467 364.984 65.9131 364.984 66.5186ZM385.58 75.293C384.35 75.293 383.246 75.0977 382.27 74.707C381.293 74.3066 380.463 73.7549 379.779 73.0518C379.105 72.3486 378.588 71.5332 378.227 70.6055C377.865 69.668 377.685 68.6719 377.685 67.6172V67.0312C377.685 65.8301 377.855 64.7314 378.197 63.7354C378.539 62.7393 379.027 61.875 379.662 61.1426C380.307 60.4102 381.088 59.8486 382.006 59.458C382.924 59.0576 383.959 58.8574 385.111 58.8574C386.234 58.8574 387.23 59.043 388.1 59.4141C388.969 59.7852 389.696 60.3125 390.282 60.9961C390.878 61.6797 391.327 62.5 391.63 63.457C391.933 64.4043 392.084 65.459 392.084 66.6211V68.3789H379.486V65.5664H387.938V65.2441C387.938 64.6582 387.831 64.1357 387.616 63.6768C387.411 63.208 387.099 62.8369 386.679 62.5635C386.259 62.29 385.722 62.1533 385.067 62.1533C384.511 62.1533 384.032 62.2754 383.632 62.5195C383.231 62.7637 382.904 63.1055 382.65 63.5449C382.406 63.9844 382.221 64.502 382.094 65.0977C381.977 65.6836 381.918 66.3281 381.918 67.0312V67.6172C381.918 68.252 382.006 68.8379 382.182 69.375C382.367 69.9121 382.626 70.376 382.958 70.7666C383.3 71.1572 383.71 71.46 384.188 71.6748C384.677 71.8896 385.229 71.9971 385.844 71.9971C386.605 71.9971 387.313 71.8506 387.968 71.5576C388.632 71.2549 389.203 70.8008 389.682 70.1953L391.732 72.4219C391.4 72.9004 390.946 73.3594 390.37 73.7988C389.804 74.2383 389.12 74.5996 388.319 74.8828C387.519 75.1562 386.605 75.293 385.58 75.293ZM398.939 59.1504V75H394.706V59.1504H398.939ZM394.442 55.0195C394.442 54.4043 394.657 53.8965 395.087 53.4961C395.517 53.0957 396.093 52.8955 396.815 52.8955C397.528 52.8955 398.1 53.0957 398.529 53.4961C398.969 53.8965 399.188 54.4043 399.188 55.0195C399.188 55.6348 398.969 56.1426 398.529 56.543C398.1 56.9434 397.528 57.1436 396.815 57.1436C396.093 57.1436 395.517 56.9434 395.087 56.543C394.657 56.1426 394.442 55.6348 394.442 55.0195ZM406.645 62.6074V75H402.426V59.1504H406.396L406.645 62.6074ZM411.42 59.0479L411.347 62.959C411.142 62.9297 410.893 62.9053 410.6 62.8857C410.316 62.8564 410.058 62.8418 409.823 62.8418C409.228 62.8418 408.71 62.9199 408.271 63.0762C407.841 63.2227 407.479 63.4424 407.187 63.7354C406.903 64.0283 406.688 64.3848 406.542 64.8047C406.405 65.2246 406.327 65.7031 406.308 66.2402L405.458 65.9766C405.458 64.9512 405.561 64.0088 405.766 63.1494C405.971 62.2803 406.269 61.5234 406.659 60.8789C407.06 60.2344 407.548 59.7363 408.124 59.3848C408.7 59.0332 409.359 58.8574 410.102 58.8574C410.336 58.8574 410.575 58.877 410.819 58.916C411.063 58.9453 411.264 58.9893 411.42 59.0479ZM412.299 67.2363V66.9287C412.299 65.7666 412.465 64.6973 412.797 63.7207C413.129 62.7344 413.612 61.8799 414.247 61.1572C414.882 60.4346 415.663 59.873 416.591 59.4727C417.519 59.0625 418.583 58.8574 419.784 58.8574C420.985 58.8574 422.055 59.0625 422.992 59.4727C423.93 59.873 424.716 60.4346 425.351 61.1572C425.995 61.8799 426.483 62.7344 426.815 63.7207C427.147 64.6973 427.313 65.7666 427.313 66.9287V67.2363C427.313 68.3887 427.147 69.458 426.815 70.4443C426.483 71.4209 425.995 72.2754 425.351 73.0078C424.716 73.7305 423.935 74.292 423.007 74.6924C422.079 75.0928 421.015 75.293 419.813 75.293C418.612 75.293 417.543 75.0928 416.605 74.6924C415.678 74.292 414.892 73.7305 414.247 73.0078C413.612 72.2754 413.129 71.4209 412.797 70.4443C412.465 69.458 412.299 68.3887 412.299 67.2363ZM416.518 66.9287V67.2363C416.518 67.9004 416.576 68.5205 416.693 69.0967C416.811 69.6729 416.996 70.1807 417.25 70.6201C417.514 71.0498 417.855 71.3867 418.275 71.6309C418.695 71.875 419.208 71.9971 419.813 71.9971C420.399 71.9971 420.902 71.875 421.322 71.6309C421.742 71.3867 422.079 71.0498 422.333 70.6201C422.587 70.1807 422.772 69.6729 422.89 69.0967C423.017 68.5205 423.08 67.9004 423.08 67.2363V66.9287C423.08 66.2842 423.017 65.6787 422.89 65.1123C422.772 64.5361 422.582 64.0283 422.318 63.5889C422.064 63.1396 421.728 62.7881 421.308 62.5342C420.888 62.2803 420.38 62.1533 419.784 62.1533C419.188 62.1533 418.681 62.2803 418.261 62.5342C417.851 62.7881 417.514 63.1396 417.25 63.5889C416.996 64.0283 416.811 64.5361 416.693 65.1123C416.576 65.6787 416.518 66.2842 416.518 66.9287Z" fill="white"/>
<path d="M163.086 96.7734L165.922 87.625H168.305L164.289 99H162.703L163.086 96.7734ZM160.469 87.625L163.289 96.7734L163.695 99H162.094L158.094 87.625H160.469ZM172.773 99.1562C172.133 99.1562 171.557 99.0521 171.047 98.8438C170.536 98.6354 170.102 98.3464 169.742 97.9766C169.388 97.6016 169.115 97.1667 168.922 96.6719C168.734 96.1719 168.641 95.6354 168.641 95.0625V94.75C168.641 94.099 168.734 93.5078 168.922 92.9766C169.109 92.4401 169.375 91.9792 169.719 91.5938C170.062 91.2083 170.474 90.9115 170.953 90.7031C171.432 90.4948 171.961 90.3906 172.539 90.3906C173.138 90.3906 173.667 90.4922 174.125 90.6953C174.583 90.8932 174.966 91.1745 175.273 91.5391C175.581 91.9036 175.812 92.3411 175.969 92.8516C176.125 93.3568 176.203 93.9167 176.203 94.5312V95.3984H169.578V93.9766H174.172V93.8203C174.161 93.4922 174.099 93.1927 173.984 92.9219C173.87 92.6458 173.693 92.4271 173.453 92.2656C173.214 92.099 172.904 92.0156 172.523 92.0156C172.216 92.0156 171.948 92.0833 171.719 92.2188C171.495 92.349 171.307 92.5365 171.156 92.7812C171.01 93.0208 170.901 93.3073 170.828 93.6406C170.755 93.974 170.719 94.3438 170.719 94.75V95.0625C170.719 95.4167 170.766 95.7448 170.859 96.0469C170.958 96.349 171.102 96.612 171.289 96.8359C171.482 97.0547 171.711 97.2266 171.977 97.3516C172.247 97.4714 172.555 97.5312 172.898 97.5312C173.331 97.5312 173.721 97.4479 174.07 97.2812C174.424 97.1094 174.732 96.8568 174.992 96.5234L176.031 97.6016C175.854 97.862 175.615 98.112 175.312 98.3516C175.016 98.5911 174.656 98.7865 174.234 98.9375C173.812 99.0833 173.326 99.1562 172.773 99.1562ZM179.609 92.3516V99H177.547V90.5469H179.484L179.609 92.3516ZM179.281 94.4688H178.672C178.677 93.8542 178.76 93.2969 178.922 92.7969C179.083 92.2969 179.31 91.8672 179.602 91.5078C179.898 91.1484 180.25 90.8724 180.656 90.6797C181.062 90.487 181.516 90.3906 182.016 90.3906C182.422 90.3906 182.789 90.4479 183.117 90.5625C183.445 90.6771 183.727 90.8594 183.961 91.1094C184.201 91.3594 184.383 91.6875 184.508 92.0938C184.638 92.4948 184.703 92.9896 184.703 93.5781V99H182.625V93.5625C182.625 93.1771 182.568 92.8724 182.453 92.6484C182.344 92.4245 182.182 92.2656 181.969 92.1719C181.76 92.0781 181.503 92.0312 181.195 92.0312C180.878 92.0312 180.599 92.0964 180.359 92.2266C180.125 92.3516 179.927 92.526 179.766 92.75C179.609 92.974 179.49 93.2318 179.406 93.5234C179.323 93.8151 179.281 94.1302 179.281 94.4688ZM188.547 87V99H186.477V87H188.547ZM188.219 94.4688H187.609C187.609 93.8802 187.688 93.3385 187.844 92.8438C188 92.349 188.221 91.9193 188.508 91.5547C188.794 91.1849 189.135 90.8984 189.531 90.6953C189.932 90.4922 190.375 90.3906 190.859 90.3906C191.276 90.3906 191.654 90.4505 191.992 90.5703C192.336 90.6849 192.63 90.8698 192.875 91.125C193.12 91.3802 193.307 91.7135 193.438 92.125C193.573 92.5312 193.641 93.026 193.641 93.6094V99H191.562V93.5938C191.562 93.2031 191.505 92.8958 191.391 92.6719C191.276 92.4427 191.112 92.2786 190.898 92.1797C190.69 92.0807 190.432 92.0312 190.125 92.0312C189.792 92.0312 189.505 92.0964 189.266 92.2266C189.026 92.3516 188.828 92.526 188.672 92.75C188.521 92.974 188.406 93.2318 188.328 93.5234C188.255 93.8151 188.219 94.1302 188.219 94.4688ZM200.117 97.2031V93.3047C200.117 93.0182 200.068 92.7708 199.969 92.5625C199.87 92.3542 199.719 92.1927 199.516 92.0781C199.312 91.9635 199.055 91.9062 198.742 91.9062C198.466 91.9062 198.224 91.9531 198.016 92.0469C197.812 92.1406 197.656 92.2734 197.547 92.4453C197.438 92.612 197.383 92.8047 197.383 93.0234H195.312C195.312 92.6745 195.396 92.3438 195.562 92.0312C195.729 91.7135 195.966 91.4323 196.273 91.1875C196.586 90.9375 196.958 90.7422 197.391 90.6016C197.828 90.4609 198.318 90.3906 198.859 90.3906C199.5 90.3906 200.07 90.5 200.57 90.7188C201.076 90.9323 201.471 91.2552 201.758 91.6875C202.049 92.1198 202.195 92.6641 202.195 93.3203V97.0078C202.195 97.4297 202.221 97.7917 202.273 98.0938C202.331 98.3906 202.414 98.6484 202.523 98.8672V99H200.422C200.323 98.7865 200.247 98.5156 200.195 98.1875C200.143 97.8542 200.117 97.526 200.117 97.2031ZM200.406 93.8516L200.422 95.0781H199.117C198.794 95.0781 198.51 95.112 198.266 95.1797C198.021 95.2422 197.82 95.3359 197.664 95.4609C197.508 95.5807 197.391 95.7266 197.312 95.8984C197.234 96.0651 197.195 96.2552 197.195 96.4688C197.195 96.6771 197.242 96.8646 197.336 97.0312C197.435 97.1979 197.576 97.3307 197.758 97.4297C197.945 97.5234 198.164 97.5703 198.414 97.5703C198.779 97.5703 199.096 97.4974 199.367 97.3516C199.638 97.2005 199.849 97.0182 200 96.8047C200.151 96.5911 200.232 96.388 200.242 96.1953L200.836 97.0859C200.763 97.2995 200.654 97.526 200.508 97.7656C200.362 98.0052 200.174 98.2292 199.945 98.4375C199.716 98.6458 199.44 98.8177 199.117 98.9531C198.794 99.0885 198.419 99.1562 197.992 99.1562C197.445 99.1562 196.956 99.0469 196.523 98.8281C196.091 98.6094 195.75 98.3099 195.5 97.9297C195.25 97.5495 195.125 97.1172 195.125 96.6328C195.125 96.1849 195.208 95.7891 195.375 95.4453C195.542 95.1016 195.789 94.8125 196.117 94.5781C196.445 94.3385 196.852 94.1589 197.336 94.0391C197.826 93.9141 198.385 93.8516 199.016 93.8516H200.406ZM210.742 99H208.664V89.7656C208.664 89.1302 208.786 88.5964 209.031 88.1641C209.276 87.7266 209.625 87.3958 210.078 87.1719C210.531 86.9479 211.065 86.8359 211.68 86.8359C211.883 86.8359 212.076 86.849 212.258 86.875C212.445 86.901 212.63 86.9375 212.812 86.9844L212.773 88.5547C212.674 88.5286 212.565 88.5104 212.445 88.5C212.331 88.4896 212.203 88.4844 212.062 88.4844C211.781 88.4844 211.542 88.5339 211.344 88.6328C211.146 88.7318 210.995 88.8776 210.891 89.0703C210.792 89.2578 210.742 89.4896 210.742 89.7656V99ZM212.453 90.5469V92.0312H207.391V90.5469H212.453ZM218.383 97.2031V93.3047C218.383 93.0182 218.333 92.7708 218.234 92.5625C218.135 92.3542 217.984 92.1927 217.781 92.0781C217.578 91.9635 217.32 91.9062 217.008 91.9062C216.732 91.9062 216.49 91.9531 216.281 92.0469C216.078 92.1406 215.922 92.2734 215.812 92.4453C215.703 92.612 215.648 92.8047 215.648 93.0234H213.578C213.578 92.6745 213.661 92.3438 213.828 92.0312C213.995 91.7135 214.232 91.4323 214.539 91.1875C214.852 90.9375 215.224 90.7422 215.656 90.6016C216.094 90.4609 216.583 90.3906 217.125 90.3906C217.766 90.3906 218.336 90.5 218.836 90.7188C219.341 90.9323 219.737 91.2552 220.023 91.6875C220.315 92.1198 220.461 92.6641 220.461 93.3203V97.0078C220.461 97.4297 220.487 97.7917 220.539 98.0938C220.596 98.3906 220.68 98.6484 220.789 98.8672V99H218.688C218.589 98.7865 218.513 98.5156 218.461 98.1875C218.409 97.8542 218.383 97.526 218.383 97.2031ZM218.672 93.8516L218.688 95.0781H217.383C217.06 95.0781 216.776 95.112 216.531 95.1797C216.286 95.2422 216.086 95.3359 215.93 95.4609C215.773 95.5807 215.656 95.7266 215.578 95.8984C215.5 96.0651 215.461 96.2552 215.461 96.4688C215.461 96.6771 215.508 96.8646 215.602 97.0312C215.701 97.1979 215.841 97.3307 216.023 97.4297C216.211 97.5234 216.43 97.5703 216.68 97.5703C217.044 97.5703 217.362 97.4974 217.633 97.3516C217.904 97.2005 218.115 97.0182 218.266 96.8047C218.417 96.5911 218.497 96.388 218.508 96.1953L219.102 97.0859C219.029 97.2995 218.919 97.526 218.773 97.7656C218.628 98.0052 218.44 98.2292 218.211 98.4375C217.982 98.6458 217.706 98.8177 217.383 98.9531C217.06 99.0885 216.685 99.1562 216.258 99.1562C215.711 99.1562 215.221 99.0469 214.789 98.8281C214.357 98.6094 214.016 98.3099 213.766 97.9297C213.516 97.5495 213.391 97.1172 213.391 96.6328C213.391 96.1849 213.474 95.7891 213.641 95.4453C213.807 95.1016 214.055 94.8125 214.383 94.5781C214.711 94.3385 215.117 94.1589 215.602 94.0391C216.091 93.9141 216.651 93.8516 217.281 93.8516H218.672ZM228.945 97.375V99H222.586V97.375H228.945ZM228.797 91.7812L223.359 99H222V97.7266L227.406 90.5469H228.797V91.7812ZM228.039 90.5469V92.1797H222.109V90.5469H228.039ZM234.086 99.1562C233.445 99.1562 232.87 99.0521 232.359 98.8438C231.849 98.6354 231.414 98.3464 231.055 97.9766C230.701 97.6016 230.427 97.1667 230.234 96.6719C230.047 96.1719 229.953 95.6354 229.953 95.0625V94.75C229.953 94.099 230.047 93.5078 230.234 92.9766C230.422 92.4401 230.688 91.9792 231.031 91.5938C231.375 91.2083 231.786 90.9115 232.266 90.7031C232.745 90.4948 233.273 90.3906 233.852 90.3906C234.451 90.3906 234.979 90.4922 235.438 90.6953C235.896 90.8932 236.279 91.1745 236.586 91.5391C236.893 91.9036 237.125 92.3411 237.281 92.8516C237.438 93.3568 237.516 93.9167 237.516 94.5312V95.3984H230.891V93.9766H235.484V93.8203C235.474 93.4922 235.411 93.1927 235.297 92.9219C235.182 92.6458 235.005 92.4271 234.766 92.2656C234.526 92.099 234.216 92.0156 233.836 92.0156C233.529 92.0156 233.26 92.0833 233.031 92.2188C232.807 92.349 232.62 92.5365 232.469 92.7812C232.323 93.0208 232.214 93.3073 232.141 93.6406C232.068 93.974 232.031 94.3438 232.031 94.75V95.0625C232.031 95.4167 232.078 95.7448 232.172 96.0469C232.271 96.349 232.414 96.612 232.602 96.8359C232.794 97.0547 233.023 97.2266 233.289 97.3516C233.56 97.4714 233.867 97.5312 234.211 97.5312C234.643 97.5312 235.034 97.4479 235.383 97.2812C235.737 97.1094 236.044 96.8568 236.305 96.5234L237.344 97.6016C237.167 97.862 236.927 98.112 236.625 98.3516C236.328 98.5911 235.969 98.7865 235.547 98.9375C235.125 99.0833 234.638 99.1562 234.086 99.1562ZM240.961 92.2734V99H238.898V90.5469H240.852L240.961 92.2734ZM243.531 90.4922L243.5 92.4141C243.385 92.3932 243.255 92.3776 243.109 92.3672C242.969 92.3568 242.836 92.3516 242.711 92.3516C242.393 92.3516 242.115 92.3958 241.875 92.4844C241.635 92.5677 241.435 92.6901 241.273 92.8516C241.117 93.013 240.997 93.2109 240.914 93.4453C240.831 93.6745 240.784 93.9349 240.773 94.2266L240.328 94.1719C240.328 93.6354 240.383 93.138 240.492 92.6797C240.602 92.2214 240.76 91.8203 240.969 91.4766C241.177 91.1328 241.438 90.8672 241.75 90.6797C242.068 90.487 242.432 90.3906 242.844 90.3906C242.958 90.3906 243.081 90.401 243.211 90.4219C243.346 90.4375 243.453 90.4609 243.531 90.4922ZM250.711 92.1719V102.25H248.641V90.5469H250.555L250.711 92.1719ZM256.141 94.6875V94.8516C256.141 95.4661 256.068 96.0365 255.922 96.5625C255.781 97.0833 255.573 97.5391 255.297 97.9297C255.021 98.3151 254.677 98.6172 254.266 98.8359C253.859 99.0495 253.391 99.1562 252.859 99.1562C252.339 99.1562 251.885 99.0573 251.5 98.8594C251.115 98.6562 250.789 98.3698 250.523 98C250.258 97.6302 250.044 97.2005 249.883 96.7109C249.727 96.2161 249.609 95.6771 249.531 95.0938V94.5703C249.609 93.9505 249.727 93.388 249.883 92.8828C250.044 92.3724 250.258 91.9323 250.523 91.5625C250.789 91.1875 251.112 90.8984 251.492 90.6953C251.878 90.4922 252.328 90.3906 252.844 90.3906C253.38 90.3906 253.852 90.4922 254.258 90.6953C254.669 90.8984 255.016 91.1901 255.297 91.5703C255.578 91.9505 255.789 92.4036 255.93 92.9297C256.07 93.4557 256.141 94.0417 256.141 94.6875ZM254.07 94.8516V94.6875C254.07 94.3125 254.036 93.9661 253.969 93.6484C253.901 93.3255 253.797 93.0443 253.656 92.8047C253.516 92.5599 253.333 92.3698 253.109 92.2344C252.885 92.099 252.615 92.0312 252.297 92.0312C251.979 92.0312 251.706 92.0833 251.477 92.1875C251.247 92.2917 251.06 92.4401 250.914 92.6328C250.768 92.8255 250.654 93.0547 250.57 93.3203C250.492 93.5807 250.44 93.8698 250.414 94.1875V95.4844C250.461 95.8698 250.552 96.2161 250.688 96.5234C250.823 96.8307 251.021 97.0755 251.281 97.2578C251.547 97.4401 251.891 97.5312 252.312 97.5312C252.63 97.5312 252.901 97.4609 253.125 97.3203C253.349 97.1797 253.531 96.987 253.672 96.7422C253.812 96.4922 253.914 96.2057 253.977 95.8828C254.039 95.5599 254.07 95.2161 254.07 94.8516ZM262.305 97.2031V93.3047C262.305 93.0182 262.255 92.7708 262.156 92.5625C262.057 92.3542 261.906 92.1927 261.703 92.0781C261.5 91.9635 261.242 91.9062 260.93 91.9062C260.654 91.9062 260.411 91.9531 260.203 92.0469C260 92.1406 259.844 92.2734 259.734 92.4453C259.625 92.612 259.57 92.8047 259.57 93.0234H257.5C257.5 92.6745 257.583 92.3438 257.75 92.0312C257.917 91.7135 258.154 91.4323 258.461 91.1875C258.773 90.9375 259.146 90.7422 259.578 90.6016C260.016 90.4609 260.505 90.3906 261.047 90.3906C261.688 90.3906 262.258 90.5 262.758 90.7188C263.263 90.9323 263.659 91.2552 263.945 91.6875C264.237 92.1198 264.383 92.6641 264.383 93.3203V97.0078C264.383 97.4297 264.409 97.7917 264.461 98.0938C264.518 98.3906 264.602 98.6484 264.711 98.8672V99H262.609C262.51 98.7865 262.435 98.5156 262.383 98.1875C262.331 97.8542 262.305 97.526 262.305 97.2031ZM262.594 93.8516L262.609 95.0781H261.305C260.982 95.0781 260.698 95.112 260.453 95.1797C260.208 95.2422 260.008 95.3359 259.852 95.4609C259.695 95.5807 259.578 95.7266 259.5 95.8984C259.422 96.0651 259.383 96.2552 259.383 96.4688C259.383 96.6771 259.43 96.8646 259.523 97.0312C259.622 97.1979 259.763 97.3307 259.945 97.4297C260.133 97.5234 260.352 97.5703 260.602 97.5703C260.966 97.5703 261.284 97.4974 261.555 97.3516C261.826 97.2005 262.036 97.0182 262.188 96.8047C262.339 96.5911 262.419 96.388 262.43 96.1953L263.023 97.0859C262.951 97.2995 262.841 97.526 262.695 97.7656C262.549 98.0052 262.362 98.2292 262.133 98.4375C261.904 98.6458 261.628 98.8177 261.305 98.9531C260.982 99.0885 260.607 99.1562 260.18 99.1562C259.633 99.1562 259.143 99.0469 258.711 98.8281C258.279 98.6094 257.938 98.3099 257.688 97.9297C257.438 97.5495 257.312 97.1172 257.312 96.6328C257.312 96.1849 257.396 95.7891 257.562 95.4453C257.729 95.1016 257.977 94.8125 258.305 94.5781C258.633 94.3385 259.039 94.1589 259.523 94.0391C260.013 93.9141 260.573 93.8516 261.203 93.8516H262.594ZM268.305 92.2734V99H266.242V90.5469H268.195L268.305 92.2734ZM270.875 90.4922L270.844 92.4141C270.729 92.3932 270.599 92.3776 270.453 92.3672C270.312 92.3568 270.18 92.3516 270.055 92.3516C269.737 92.3516 269.458 92.3958 269.219 92.4844C268.979 92.5677 268.779 92.6901 268.617 92.8516C268.461 93.013 268.341 93.2109 268.258 93.4453C268.174 93.6745 268.128 93.9349 268.117 94.2266L267.672 94.1719C267.672 93.6354 267.727 93.138 267.836 92.6797C267.945 92.2214 268.104 91.8203 268.312 91.4766C268.521 91.1328 268.781 90.8672 269.094 90.6797C269.411 90.487 269.776 90.3906 270.188 90.3906C270.302 90.3906 270.424 90.401 270.555 90.4219C270.69 90.4375 270.797 90.4609 270.875 90.4922ZM276.398 90.5469V92.0312H271.555V90.5469H276.398ZM272.852 88.4688H274.922V96.5625C274.922 96.8125 274.956 97.0052 275.023 97.1406C275.091 97.276 275.193 97.3672 275.328 97.4141C275.464 97.4609 275.625 97.4844 275.812 97.4844C275.948 97.4844 276.073 97.4766 276.188 97.4609C276.302 97.4453 276.398 97.4297 276.477 97.4141L276.484 98.9609C276.312 99.0182 276.117 99.0651 275.898 99.1016C275.685 99.138 275.443 99.1562 275.172 99.1562C274.708 99.1562 274.302 99.0781 273.953 98.9219C273.604 98.7604 273.333 98.5026 273.141 98.1484C272.948 97.7891 272.852 97.3151 272.852 96.7266V88.4688ZM281.57 99.1562C280.93 99.1562 280.354 99.0521 279.844 98.8438C279.333 98.6354 278.898 98.3464 278.539 97.9766C278.185 97.6016 277.911 97.1667 277.719 96.6719C277.531 96.1719 277.438 95.6354 277.438 95.0625V94.75C277.438 94.099 277.531 93.5078 277.719 92.9766C277.906 92.4401 278.172 91.9792 278.516 91.5938C278.859 91.2083 279.271 90.9115 279.75 90.7031C280.229 90.4948 280.758 90.3906 281.336 90.3906C281.935 90.3906 282.464 90.4922 282.922 90.6953C283.38 90.8932 283.763 91.1745 284.07 91.5391C284.378 91.9036 284.609 92.3411 284.766 92.8516C284.922 93.3568 285 93.9167 285 94.5312V95.3984H278.375V93.9766H282.969V93.8203C282.958 93.4922 282.896 93.1927 282.781 92.9219C282.667 92.6458 282.49 92.4271 282.25 92.2656C282.01 92.099 281.701 92.0156 281.32 92.0156C281.013 92.0156 280.745 92.0833 280.516 92.2188C280.292 92.349 280.104 92.5365 279.953 92.7812C279.807 93.0208 279.698 93.3073 279.625 93.6406C279.552 93.974 279.516 94.3438 279.516 94.75V95.0625C279.516 95.4167 279.562 95.7448 279.656 96.0469C279.755 96.349 279.898 96.612 280.086 96.8359C280.279 97.0547 280.508 97.2266 280.773 97.3516C281.044 97.4714 281.352 97.5312 281.695 97.5312C282.128 97.5312 282.518 97.4479 282.867 97.2812C283.221 97.1094 283.529 96.8568 283.789 96.5234L284.828 97.6016C284.651 97.862 284.411 98.112 284.109 98.3516C283.812 98.5911 283.453 98.7865 283.031 98.9375C282.609 99.0833 282.122 99.1562 281.57 99.1562ZM295.438 97.2031V87H297.516V99H295.641L295.438 97.2031ZM290.008 94.875V94.7109C290.008 94.0651 290.081 93.4792 290.227 92.9531C290.378 92.4219 290.596 91.9661 290.883 91.5859C291.169 91.2057 291.516 90.9115 291.922 90.7031C292.333 90.4948 292.799 90.3906 293.32 90.3906C293.826 90.3906 294.266 90.4922 294.641 90.6953C295.021 90.8984 295.344 91.1875 295.609 91.5625C295.88 91.9375 296.096 92.3828 296.258 92.8984C296.419 93.4089 296.536 93.9714 296.609 94.5859V95.0312C296.536 95.6302 296.419 96.1797 296.258 96.6797C296.096 97.1797 295.88 97.6172 295.609 97.9922C295.344 98.362 295.021 98.6484 294.641 98.8516C294.26 99.0547 293.815 99.1562 293.305 99.1562C292.789 99.1562 292.326 99.0495 291.914 98.8359C291.508 98.6224 291.161 98.3229 290.875 97.9375C290.594 97.5521 290.378 97.099 290.227 96.5781C290.081 96.0573 290.008 95.4896 290.008 94.875ZM292.078 94.7109V94.875C292.078 95.2396 292.109 95.5807 292.172 95.8984C292.234 96.2161 292.336 96.4974 292.477 96.7422C292.617 96.9818 292.797 97.1693 293.016 97.3047C293.24 97.4401 293.51 97.5078 293.828 97.5078C294.234 97.5078 294.568 97.4193 294.828 97.2422C295.094 97.0599 295.299 96.8125 295.445 96.5C295.591 96.1823 295.685 95.8255 295.727 95.4297V94.2031C295.706 93.8906 295.651 93.6016 295.562 93.3359C295.479 93.0703 295.359 92.8411 295.203 92.6484C295.052 92.4557 294.865 92.3047 294.641 92.1953C294.417 92.0859 294.151 92.0312 293.844 92.0312C293.526 92.0312 293.255 92.1016 293.031 92.2422C292.807 92.3776 292.625 92.5677 292.484 92.8125C292.344 93.0573 292.24 93.3411 292.172 93.6641C292.109 93.987 292.078 94.3359 292.078 94.7109ZM304.039 97.2031V93.3047C304.039 93.0182 303.99 92.7708 303.891 92.5625C303.792 92.3542 303.641 92.1927 303.438 92.0781C303.234 91.9635 302.977 91.9062 302.664 91.9062C302.388 91.9062 302.146 91.9531 301.938 92.0469C301.734 92.1406 301.578 92.2734 301.469 92.4453C301.359 92.612 301.305 92.8047 301.305 93.0234H299.234C299.234 92.6745 299.318 92.3438 299.484 92.0312C299.651 91.7135 299.888 91.4323 300.195 91.1875C300.508 90.9375 300.88 90.7422 301.312 90.6016C301.75 90.4609 302.24 90.3906 302.781 90.3906C303.422 90.3906 303.992 90.5 304.492 90.7188C304.997 90.9323 305.393 91.2552 305.68 91.6875C305.971 92.1198 306.117 92.6641 306.117 93.3203V97.0078C306.117 97.4297 306.143 97.7917 306.195 98.0938C306.253 98.3906 306.336 98.6484 306.445 98.8672V99H304.344C304.245 98.7865 304.169 98.5156 304.117 98.1875C304.065 97.8542 304.039 97.526 304.039 97.2031ZM304.328 93.8516L304.344 95.0781H303.039C302.716 95.0781 302.432 95.112 302.188 95.1797C301.943 95.2422 301.742 95.3359 301.586 95.4609C301.43 95.5807 301.312 95.7266 301.234 95.8984C301.156 96.0651 301.117 96.2552 301.117 96.4688C301.117 96.6771 301.164 96.8646 301.258 97.0312C301.357 97.1979 301.497 97.3307 301.68 97.4297C301.867 97.5234 302.086 97.5703 302.336 97.5703C302.701 97.5703 303.018 97.4974 303.289 97.3516C303.56 97.2005 303.771 97.0182 303.922 96.8047C304.073 96.5911 304.154 96.388 304.164 96.1953L304.758 97.0859C304.685 97.2995 304.576 97.526 304.43 97.7656C304.284 98.0052 304.096 98.2292 303.867 98.4375C303.638 98.6458 303.362 98.8177 303.039 98.9531C302.716 99.0885 302.341 99.1562 301.914 99.1562C301.367 99.1562 300.878 99.0469 300.445 98.8281C300.013 98.6094 299.672 98.3099 299.422 97.9297C299.172 97.5495 299.047 97.1172 299.047 96.6328C299.047 96.1849 299.13 95.7891 299.297 95.4453C299.464 95.1016 299.711 94.8125 300.039 94.5781C300.367 94.3385 300.773 94.1589 301.258 94.0391C301.747 93.9141 302.307 93.8516 302.938 93.8516H304.328ZM313.984 92.3516V99H311.922V90.5469H313.859L313.984 92.3516ZM313.656 94.4688H313.047C313.052 93.8542 313.135 93.2969 313.297 92.7969C313.458 92.2969 313.685 91.8672 313.977 91.5078C314.273 91.1484 314.625 90.8724 315.031 90.6797C315.438 90.487 315.891 90.3906 316.391 90.3906C316.797 90.3906 317.164 90.4479 317.492 90.5625C317.82 90.6771 318.102 90.8594 318.336 91.1094C318.576 91.3594 318.758 91.6875 318.883 92.0938C319.013 92.4948 319.078 92.9896 319.078 93.5781V99H317V93.5625C317 93.1771 316.943 92.8724 316.828 92.6484C316.719 92.4245 316.557 92.2656 316.344 92.1719C316.135 92.0781 315.878 92.0312 315.57 92.0312C315.253 92.0312 314.974 92.0964 314.734 92.2266C314.5 92.3516 314.302 92.526 314.141 92.75C313.984 92.974 313.865 93.2318 313.781 93.5234C313.698 93.8151 313.656 94.1302 313.656 94.4688ZM320.531 94.8594V94.6953C320.531 94.0755 320.62 93.5052 320.797 92.9844C320.974 92.4583 321.232 92.0026 321.57 91.6172C321.909 91.2318 322.323 90.9323 322.812 90.7188C323.302 90.5 323.859 90.3906 324.484 90.3906C325.12 90.3906 325.682 90.5 326.172 90.7188C326.667 90.9323 327.083 91.2318 327.422 91.6172C327.76 92.0026 328.018 92.4583 328.195 92.9844C328.372 93.5052 328.461 94.0755 328.461 94.6953V94.8594C328.461 95.474 328.372 96.0443 328.195 96.5703C328.018 97.0911 327.76 97.5469 327.422 97.9375C327.083 98.3229 326.669 98.6224 326.18 98.8359C325.69 99.0495 325.13 99.1562 324.5 99.1562C323.875 99.1562 323.315 99.0495 322.82 98.8359C322.326 98.6224 321.909 98.3229 321.57 97.9375C321.232 97.5469 320.974 97.0911 320.797 96.5703C320.62 96.0443 320.531 95.474 320.531 94.8594ZM322.594 94.6953V94.8594C322.594 95.2292 322.63 95.5755 322.703 95.8984C322.776 96.2214 322.888 96.5052 323.039 96.75C323.19 96.9948 323.385 97.1875 323.625 97.3281C323.87 97.4635 324.161 97.5312 324.5 97.5312C324.833 97.5312 325.12 97.4635 325.359 97.3281C325.599 97.1875 325.794 96.9948 325.945 96.75C326.102 96.5052 326.216 96.2214 326.289 95.8984C326.362 95.5755 326.398 95.2292 326.398 94.8594V94.6953C326.398 94.3307 326.362 93.9896 326.289 93.6719C326.216 93.349 326.102 93.0651 325.945 92.8203C325.794 92.5703 325.596 92.375 325.352 92.2344C325.112 92.0885 324.823 92.0156 324.484 92.0156C324.151 92.0156 323.865 92.0885 323.625 92.2344C323.385 92.375 323.19 92.5703 323.039 92.8203C322.888 93.0651 322.776 93.349 322.703 93.6719C322.63 93.9896 322.594 94.3307 322.594 94.6953ZM334.609 96.6875C334.609 96.5104 334.562 96.3516 334.469 96.2109C334.375 96.0703 334.198 95.9427 333.938 95.8281C333.682 95.7083 333.307 95.5964 332.812 95.4922C332.375 95.3984 331.971 95.2812 331.602 95.1406C331.232 95 330.914 94.8307 330.648 94.6328C330.383 94.4297 330.174 94.1927 330.023 93.9219C329.878 93.6458 329.805 93.3281 329.805 92.9688C329.805 92.6198 329.88 92.2917 330.031 91.9844C330.182 91.6719 330.401 91.3984 330.688 91.1641C330.974 90.9245 331.323 90.737 331.734 90.6016C332.146 90.4609 332.609 90.3906 333.125 90.3906C333.844 90.3906 334.461 90.5078 334.977 90.7422C335.497 90.9766 335.896 91.2995 336.172 91.7109C336.448 92.1172 336.586 92.5755 336.586 93.0859H334.523C334.523 92.862 334.471 92.6589 334.367 92.4766C334.268 92.2943 334.115 92.1484 333.906 92.0391C333.698 91.9245 333.435 91.8672 333.117 91.8672C332.831 91.8672 332.589 91.9141 332.391 92.0078C332.198 92.1016 332.052 92.224 331.953 92.375C331.854 92.526 331.805 92.6927 331.805 92.875C331.805 93.0104 331.831 93.1328 331.883 93.2422C331.94 93.3464 332.031 93.4427 332.156 93.5312C332.281 93.6198 332.451 93.7005 332.664 93.7734C332.883 93.8464 333.151 93.9167 333.469 93.9844C334.099 94.1094 334.648 94.276 335.117 94.4844C335.591 94.6875 335.961 94.9583 336.227 95.2969C336.492 95.6354 336.625 96.0677 336.625 96.5938C336.625 96.9688 336.544 97.3125 336.383 97.625C336.221 97.9323 335.987 98.2005 335.68 98.4297C335.372 98.6589 335.005 98.8385 334.578 98.9688C334.151 99.0938 333.669 99.1562 333.133 99.1562C332.357 99.1562 331.701 99.0182 331.164 98.7422C330.628 98.4609 330.221 98.1068 329.945 97.6797C329.669 97.2474 329.531 96.7995 329.531 96.3359H331.508C331.523 96.6641 331.612 96.9271 331.773 97.125C331.935 97.3229 332.138 97.4661 332.383 97.5547C332.633 97.638 332.896 97.6797 333.172 97.6797C333.484 97.6797 333.747 97.638 333.961 97.5547C334.174 97.4661 334.336 97.349 334.445 97.2031C334.555 97.0521 334.609 96.8802 334.609 96.6875ZM342.844 96.6875C342.844 96.5104 342.797 96.3516 342.703 96.2109C342.609 96.0703 342.432 95.9427 342.172 95.8281C341.917 95.7083 341.542 95.5964 341.047 95.4922C340.609 95.3984 340.206 95.2812 339.836 95.1406C339.466 95 339.148 94.8307 338.883 94.6328C338.617 94.4297 338.409 94.1927 338.258 93.9219C338.112 93.6458 338.039 93.3281 338.039 92.9688C338.039 92.6198 338.115 92.2917 338.266 91.9844C338.417 91.6719 338.635 91.3984 338.922 91.1641C339.208 90.9245 339.557 90.737 339.969 90.6016C340.38 90.4609 340.844 90.3906 341.359 90.3906C342.078 90.3906 342.695 90.5078 343.211 90.7422C343.732 90.9766 344.13 91.2995 344.406 91.7109C344.682 92.1172 344.82 92.5755 344.82 93.0859H342.758C342.758 92.862 342.706 92.6589 342.602 92.4766C342.503 92.2943 342.349 92.1484 342.141 92.0391C341.932 91.9245 341.669 91.8672 341.352 91.8672C341.065 91.8672 340.823 91.9141 340.625 92.0078C340.432 92.1016 340.286 92.224 340.188 92.375C340.089 92.526 340.039 92.6927 340.039 92.875C340.039 93.0104 340.065 93.1328 340.117 93.2422C340.174 93.3464 340.266 93.4427 340.391 93.5312C340.516 93.6198 340.685 93.7005 340.898 93.7734C341.117 93.8464 341.385 93.9167 341.703 93.9844C342.333 94.1094 342.883 94.276 343.352 94.4844C343.826 94.6875 344.195 94.9583 344.461 95.2969C344.727 95.6354 344.859 96.0677 344.859 96.5938C344.859 96.9688 344.779 97.3125 344.617 97.625C344.456 97.9323 344.221 98.2005 343.914 98.4297C343.607 98.6589 343.24 98.8385 342.812 98.9688C342.385 99.0938 341.904 99.1562 341.367 99.1562C340.591 99.1562 339.935 99.0182 339.398 98.7422C338.862 98.4609 338.456 98.1068 338.18 97.6797C337.904 97.2474 337.766 96.7995 337.766 96.3359H339.742C339.758 96.6641 339.846 96.9271 340.008 97.125C340.169 97.3229 340.372 97.4661 340.617 97.5547C340.867 97.638 341.13 97.6797 341.406 97.6797C341.719 97.6797 341.982 97.638 342.195 97.5547C342.409 97.4661 342.57 97.349 342.68 97.2031C342.789 97.0521 342.844 96.8802 342.844 96.6875ZM351.086 97.2031V93.3047C351.086 93.0182 351.036 92.7708 350.938 92.5625C350.839 92.3542 350.688 92.1927 350.484 92.0781C350.281 91.9635 350.023 91.9062 349.711 91.9062C349.435 91.9062 349.193 91.9531 348.984 92.0469C348.781 92.1406 348.625 92.2734 348.516 92.4453C348.406 92.612 348.352 92.8047 348.352 93.0234H346.281C346.281 92.6745 346.365 92.3438 346.531 92.0312C346.698 91.7135 346.935 91.4323 347.242 91.1875C347.555 90.9375 347.927 90.7422 348.359 90.6016C348.797 90.4609 349.286 90.3906 349.828 90.3906C350.469 90.3906 351.039 90.5 351.539 90.7188C352.044 90.9323 352.44 91.2552 352.727 91.6875C353.018 92.1198 353.164 92.6641 353.164 93.3203V97.0078C353.164 97.4297 353.19 97.7917 353.242 98.0938C353.299 98.3906 353.383 98.6484 353.492 98.8672V99H351.391C351.292 98.7865 351.216 98.5156 351.164 98.1875C351.112 97.8542 351.086 97.526 351.086 97.2031ZM351.375 93.8516L351.391 95.0781H350.086C349.763 95.0781 349.479 95.112 349.234 95.1797C348.99 95.2422 348.789 95.3359 348.633 95.4609C348.477 95.5807 348.359 95.7266 348.281 95.8984C348.203 96.0651 348.164 96.2552 348.164 96.4688C348.164 96.6771 348.211 96.8646 348.305 97.0312C348.404 97.1979 348.544 97.3307 348.727 97.4297C348.914 97.5234 349.133 97.5703 349.383 97.5703C349.747 97.5703 350.065 97.4974 350.336 97.3516C350.607 97.2005 350.818 97.0182 350.969 96.8047C351.12 96.5911 351.201 96.388 351.211 96.1953L351.805 97.0859C351.732 97.2995 351.622 97.526 351.477 97.7656C351.331 98.0052 351.143 98.2292 350.914 98.4375C350.685 98.6458 350.409 98.8177 350.086 98.9531C349.763 99.0885 349.388 99.1562 348.961 99.1562C348.414 99.1562 347.924 99.0469 347.492 98.8281C347.06 98.6094 346.719 98.3099 346.469 97.9297C346.219 97.5495 346.094 97.1172 346.094 96.6328C346.094 96.1849 346.177 95.7891 346.344 95.4453C346.51 95.1016 346.758 94.8125 347.086 94.5781C347.414 94.3385 347.82 94.1589 348.305 94.0391C348.794 93.9141 349.354 93.8516 349.984 93.8516H351.375ZM361.711 99H359.633V89.7656C359.633 89.1302 359.755 88.5964 360 88.1641C360.245 87.7266 360.594 87.3958 361.047 87.1719C361.5 86.9479 362.034 86.8359 362.648 86.8359C362.852 86.8359 363.044 86.849 363.227 86.875C363.414 86.901 363.599 86.9375 363.781 86.9844L363.742 88.5547C363.643 88.5286 363.534 88.5104 363.414 88.5C363.299 88.4896 363.172 88.4844 363.031 88.4844C362.75 88.4844 362.51 88.5339 362.312 88.6328C362.115 88.7318 361.964 88.8776 361.859 89.0703C361.76 89.2578 361.711 89.4896 361.711 89.7656V99ZM363.422 90.5469V92.0312H358.359V90.5469H363.422ZM369.352 97.2031V93.3047C369.352 93.0182 369.302 92.7708 369.203 92.5625C369.104 92.3542 368.953 92.1927 368.75 92.0781C368.547 91.9635 368.289 91.9062 367.977 91.9062C367.701 91.9062 367.458 91.9531 367.25 92.0469C367.047 92.1406 366.891 92.2734 366.781 92.4453C366.672 92.612 366.617 92.8047 366.617 93.0234H364.547C364.547 92.6745 364.63 92.3438 364.797 92.0312C364.964 91.7135 365.201 91.4323 365.508 91.1875C365.82 90.9375 366.193 90.7422 366.625 90.6016C367.062 90.4609 367.552 90.3906 368.094 90.3906C368.734 90.3906 369.305 90.5 369.805 90.7188C370.31 90.9323 370.706 91.2552 370.992 91.6875C371.284 92.1198 371.43 92.6641 371.43 93.3203V97.0078C371.43 97.4297 371.456 97.7917 371.508 98.0938C371.565 98.3906 371.648 98.6484 371.758 98.8672V99H369.656C369.557 98.7865 369.482 98.5156 369.43 98.1875C369.378 97.8542 369.352 97.526 369.352 97.2031ZM369.641 93.8516L369.656 95.0781H368.352C368.029 95.0781 367.745 95.112 367.5 95.1797C367.255 95.2422 367.055 95.3359 366.898 95.4609C366.742 95.5807 366.625 95.7266 366.547 95.8984C366.469 96.0651 366.43 96.2552 366.43 96.4688C366.43 96.6771 366.477 96.8646 366.57 97.0312C366.669 97.1979 366.81 97.3307 366.992 97.4297C367.18 97.5234 367.398 97.5703 367.648 97.5703C368.013 97.5703 368.331 97.4974 368.602 97.3516C368.872 97.2005 369.083 97.0182 369.234 96.8047C369.385 96.5911 369.466 96.388 369.477 96.1953L370.07 97.0859C369.997 97.2995 369.888 97.526 369.742 97.7656C369.596 98.0052 369.409 98.2292 369.18 98.4375C368.951 98.6458 368.674 98.8177 368.352 98.9531C368.029 99.0885 367.654 99.1562 367.227 99.1562C366.68 99.1562 366.19 99.0469 365.758 98.8281C365.326 98.6094 364.984 98.3099 364.734 97.9297C364.484 97.5495 364.359 97.1172 364.359 96.6328C364.359 96.1849 364.443 95.7891 364.609 95.4453C364.776 95.1016 365.023 94.8125 365.352 94.5781C365.68 94.3385 366.086 94.1589 366.57 94.0391C367.06 93.9141 367.62 93.8516 368.25 93.8516H369.641ZM375.344 92.2812V99H373.281V90.5469H375.227L375.344 92.2812ZM375.039 94.4688H374.406C374.406 93.8802 374.477 93.3385 374.617 92.8438C374.763 92.349 374.977 91.9193 375.258 91.5547C375.539 91.1849 375.885 90.8984 376.297 90.6953C376.714 90.4922 377.195 90.3906 377.742 90.3906C378.122 90.3906 378.471 90.4479 378.789 90.5625C379.107 90.6719 379.38 90.8464 379.609 91.0859C379.844 91.3203 380.023 91.6276 380.148 92.0078C380.273 92.3828 380.336 92.8333 380.336 93.3594V99H378.273V93.5703C378.273 93.1745 378.216 92.8646 378.102 92.6406C377.992 92.4167 377.833 92.2604 377.625 92.1719C377.417 92.0781 377.167 92.0312 376.875 92.0312C376.552 92.0312 376.273 92.0964 376.039 92.2266C375.81 92.3516 375.62 92.526 375.469 92.75C375.323 92.974 375.214 93.2318 375.141 93.5234C375.073 93.8151 375.039 94.1302 375.039 94.4688ZM380.18 94.0859L379.328 94.2422C379.333 93.7109 379.406 93.2135 379.547 92.75C379.688 92.2812 379.893 91.8724 380.164 91.5234C380.44 91.1693 380.781 90.8932 381.188 90.6953C381.599 90.4922 382.073 90.3906 382.609 90.3906C383.026 90.3906 383.401 90.4505 383.734 90.5703C384.073 90.6849 384.362 90.8698 384.602 91.125C384.841 91.375 385.023 91.7005 385.148 92.1016C385.279 92.5026 385.344 92.9922 385.344 93.5703V99H383.266V93.5625C383.266 93.151 383.208 92.8359 383.094 92.6172C382.984 92.3984 382.826 92.2474 382.617 92.1641C382.409 92.0755 382.164 92.0312 381.883 92.0312C381.596 92.0312 381.346 92.0859 381.133 92.1953C380.924 92.2995 380.747 92.4453 380.602 92.6328C380.461 92.8203 380.354 93.0391 380.281 93.2891C380.214 93.5339 380.18 93.7995 380.18 94.0859ZM389.422 90.5469V99H387.352V90.5469H389.422ZM387.391 89.4688L388.922 87.0938H391.203L389.07 89.4688H387.391ZM393.664 87V99H391.594V87H393.664ZM397.82 90.5469V99H395.75V90.5469H397.82ZM395.609 88.3359C395.609 88.0286 395.714 87.7734 395.922 87.5703C396.135 87.3672 396.422 87.2656 396.781 87.2656C397.141 87.2656 397.424 87.3672 397.633 87.5703C397.846 87.7734 397.953 88.0286 397.953 88.3359C397.953 88.638 397.846 88.8906 397.633 89.0938C397.424 89.2969 397.141 89.3984 396.781 89.3984C396.422 89.3984 396.135 89.2969 395.922 89.0938C395.714 88.8906 395.609 88.638 395.609 88.3359ZM404.445 97.2031V93.3047C404.445 93.0182 404.396 92.7708 404.297 92.5625C404.198 92.3542 404.047 92.1927 403.844 92.0781C403.641 91.9635 403.383 91.9062 403.07 91.9062C402.794 91.9062 402.552 91.9531 402.344 92.0469C402.141 92.1406 401.984 92.2734 401.875 92.4453C401.766 92.612 401.711 92.8047 401.711 93.0234H399.641C399.641 92.6745 399.724 92.3438 399.891 92.0312C400.057 91.7135 400.294 91.4323 400.602 91.1875C400.914 90.9375 401.286 90.7422 401.719 90.6016C402.156 90.4609 402.646 90.3906 403.188 90.3906C403.828 90.3906 404.398 90.5 404.898 90.7188C405.404 90.9323 405.799 91.2552 406.086 91.6875C406.378 92.1198 406.523 92.6641 406.523 93.3203V97.0078C406.523 97.4297 406.549 97.7917 406.602 98.0938C406.659 98.3906 406.742 98.6484 406.852 98.8672V99H404.75C404.651 98.7865 404.576 98.5156 404.523 98.1875C404.471 97.8542 404.445 97.526 404.445 97.2031ZM404.734 93.8516L404.75 95.0781H403.445C403.122 95.0781 402.839 95.112 402.594 95.1797C402.349 95.2422 402.148 95.3359 401.992 95.4609C401.836 95.5807 401.719 95.7266 401.641 95.8984C401.562 96.0651 401.523 96.2552 401.523 96.4688C401.523 96.6771 401.57 96.8646 401.664 97.0312C401.763 97.1979 401.904 97.3307 402.086 97.4297C402.273 97.5234 402.492 97.5703 402.742 97.5703C403.107 97.5703 403.424 97.4974 403.695 97.3516C403.966 97.2005 404.177 97.0182 404.328 96.8047C404.479 96.5911 404.56 96.388 404.57 96.1953L405.164 97.0859C405.091 97.2995 404.982 97.526 404.836 97.7656C404.69 98.0052 404.503 98.2292 404.273 98.4375C404.044 98.6458 403.768 98.8177 403.445 98.9531C403.122 99.0885 402.747 99.1562 402.32 99.1562C401.773 99.1562 401.284 99.0469 400.852 98.8281C400.419 98.6094 400.078 98.3099 399.828 97.9297C399.578 97.5495 399.453 97.1172 399.453 96.6328C399.453 96.1849 399.536 95.7891 399.703 95.4453C399.87 95.1016 400.117 94.8125 400.445 94.5781C400.773 94.3385 401.18 94.1589 401.664 94.0391C402.154 93.9141 402.714 93.8516 403.344 93.8516H404.734Z" fill="white"/>
<defs>
<radialGradient id="paint0_radial_5_2" cx="0" cy="0" r="1" gradientUnits="userSpaceOnUse" gradientTransform="translate(225 75) rotate(-90) scale(38.5 115.5)">
<stop offset="0.39375" stop-color="#313558"/>
<stop offset="1" stop-color="#5060F4" stop-opacity="0"/>
</radialGradient>
<linearGradient id="paint1_linear_5_2" x1="0" y1="0" x2="450" y2="144.5" gradientUnits="userSpaceOnUse">
<stop offset="0.315625" stop-color="#45DB81"/>
<stop offset="1" stop-color="#149C6B" stop-opacity="0"/>
</linearGradient>
<linearGradient id="paint2_linear_5_2" x1="496" y1="118.5" x2="370" y2="69.5" gradientUnits="userSpaceOnUse">
<stop offset="0.513542" stop-color="#45D899"/>
<stop offset="1" stop-color="#45DB81" stop-opacity="0.75"/>
</linearGradient>
<clipPath id="clip0_5_2">
<rect width="133" height="121" fill="white" transform="translate(11 13)"/>
</clipPath>
</defs>
</svg>
